HIERARCHY
ROOT Hips
{
	OFFSET 0.000000 0.000000 0.000000
	CHANNELS 6 Xposition Yposition Zposition Xrotation Yrotation Zrotation
	JOINT LeftUpLeg_virtual
	{
		OFFSET 0.000000 0.000000 0.000000
		CHANNELS 3 Xrotation Yrotation Zrotation
		JOINT LeftUpLeg
		{
			OFFSET 11.394100 -6.187798 -0.413800
			CHANNELS 3 Xrotation Yrotation Zrotation
			JOINT LeftLeg
			{
				OFFSET 0.430247 -32.302673 3.732800
				CHANNELS 3 Xrotation Yrotation Zrotation
				JOINT LeftFoot
				{
					OFFSET -0.430247 -48.264931 -6.423300
					CHANNELS 3 Xrotation Yrotation Zrotation
					JOINT LeftToeBase
					{
						OFFSET 4.230900 -16.068199 23.438400
						CHANNELS 3 Xrotation Yrotation Zrotation
						JOINT LeftToe_End
						{
							OFFSET 4.510700 0.695400 19.974600
							CHANNELS 3 Xrotation Yrotation Zrotation
							End Site
							{
								OFFSET 0 0 0
							}
						}
					}
				}
			}
		}
	}
	JOINT RightUpLeg_virtual
	{
		OFFSET 0.000000 0.000000 0.000000
		CHANNELS 3 Xrotation Yrotation Zrotation
		JOINT RightUpLeg
		{
			OFFSET -11.333700 -6.187798 -0.413800
			CHANNELS 3 Xrotation Yrotation Zrotation
			JOINT RightLeg
			{
				OFFSET -0.430392 -32.302628 3.733000
				CHANNELS 3 Xrotation Yrotation Zrotation
				JOINT RightFoot
				{
					OFFSET 0.430392 -48.264973 -6.423500
					CHANNELS 3 Xrotation Yrotation Zrotation
					JOINT RightToeBase
					{
						OFFSET -4.230900 -16.068199 23.438400
						CHANNELS 3 Xrotation Yrotation Zrotation
						JOINT RightToe_End
						{
							OFFSET -4.510700 0.695400 19.974600
							CHANNELS 3 Xrotation Yrotation Zrotation
							End Site
							{
								OFFSET 0 0 0
							}
						}
					}
				}
			}
		}
	}
	JOINT Spine_virtual
	{
		OFFSET 0.000000 0.000000 0.000000
		CHANNELS 3 Xrotation Yrotation Zrotation
		JOINT Spine
		{
			OFFSET -0.002400 12.777504 0.315300
			CHANNELS 3 Xrotation Yrotation Zrotation
			JOINT Spine1
			{
				OFFSET -0.002067 5.816869 0.032633
				CHANNELS 3 Xrotation Yrotation Zrotation
				JOINT Spine1_split
				{
					OFFSET -0.002067 5.816869 0.032633
					CHANNELS 3 Xrotation Yrotation Zrotation
					JOINT Spine2
					{
						OFFSET -0.002067 5.816869 0.032633
						CHANNELS 3 Xrotation Yrotation Zrotation
						JOINT Neck_virtual
						{
							OFFSET 0.000000 0.000000 0.000000
							CHANNELS 3 Xrotation Yrotation Zrotation
							JOINT Neck
							{
								OFFSET -0.003700 21.199493 -0.826900
								CHANNELS 3 Xrotation Yrotation Zrotation
								JOINT Head
								{
									OFFSET 0.000000 20.442200 4.834800
									CHANNELS 3 Xrotation Yrotation Zrotation
									JOINT HeadTop_End
									{
										OFFSET 0.000000 34.668396 4.968400
										CHANNELS 3 Xrotation Yrotation Zrotation
										End Site
										{
											OFFSET 0 0 0
										}
									}
								}
							}
						}
						JOINT LeftShoulder_virtual
						{
							OFFSET 0.000000 0.000000 0.000000
							CHANNELS 3 Xrotation Yrotation Zrotation
							JOINT LeftShoulder
							{
								OFFSET 3.288150 8.794197 -1.372250
								CHANNELS 3 Xrotation Yrotation Zrotation
								JOINT LeftShoulder_split
								{
									OFFSET 3.288150 8.794197 -1.372250
									CHANNELS 3 Xrotation Yrotation Zrotation
									JOINT LeftArm
									{
										OFFSET 11.953299 -2.279007 -0.146200
										CHANNELS 3 Xrotation Yrotation Zrotation
										JOINT LeftForeArm
										{
											OFFSET 18.448900 0.000000 0.000000
											CHANNELS 3 Xrotation Yrotation Zrotation
											JOINT LeftHand
											{
												OFFSET 29.527798 0.000000 0.000000
												CHANNELS 3 Xrotation Yrotation Zrotation
												End Site
												{
													OFFSET 0 0 0
												}
											}
										}
									}
								}
							}
						}
						JOINT RightShoulder_virtual
						{
							OFFSET 0.000000 0.000000 0.000000
							CHANNELS 3 Xrotation Yrotation Zrotation
							JOINT RightShoulder
							{
								OFFSET -3.249400 8.794197 -1.372250
								CHANNELS 3 Xrotation Yrotation Zrotation
								JOINT RightShoulder_split
								{
									OFFSET -3.249400 8.794197 -1.372250
									CHANNELS 3 Xrotation Yrotation Zrotation
									JOINT RightArm
									{
										OFFSET -11.953299 -2.279007 -0.146200
										CHANNELS 3 Xrotation Yrotation Zrotation
										JOINT RightForeArm
										{
											OFFSET -18.448900 0.000000 0.000000
											CHANNELS 3 Xrotation Yrotation Zrotation
											JOINT RightHand
											{
												OFFSET -29.527802 0.000000 0.000000
												CHANNELS 3 Xrotation Yrotation Zrotation
												End Site
												{
													OFFSET 0 0 0
												}
											}
										}
									}
								}
							}
						}
					}
				}
			}
		}
	}
}
MOTION
Frames: 7
Frame Time: 0.03333333
-3.280672 92.560204 5.620060 0.000000 0.000000 0.000000 32.543276 -8.578245 -4.773937 -66.088425 6.058960 2.023079 66.843988 -7.297630 2.583995 6.160572 -0.198756 11.493452 -24.956007 -2.780150 4.196464 0.000000 0.000000 0.000000 30.879446 -8.744036 -4.878849 -38.521044 -19.175703 0.432643 40.127044 -6.256593 -0.846089 -30.298856 5.869024 1.494472 -3.785181 -3.364369 -0.942386 0.000000 0.000000 0.000000 29.950537 -4.610919 -5.191068 3.707974 4.117218 1.227925 -0.266466 1.668996 -0.510746 0.125474 -0.548524 -0.196319 0.000000 0.000000 0.000000 0.138559 1.566121 -0.316859 -11.356725 0.119867 3.104594 -10.536437 3.670348 -3.147043 0.000000 0.000000 0.000000 -0.850861 1.878104 -0.533909 1.236649 0.955494 -19.906233 2.943504 -2.031058 0.154669 18.771674 -3.969457 -42.521394 2.573418 -68.052692 0.521848 0.000000 0.000000 0.000000 0.005217 1.528045 -0.980655 1.621042 3.947016 18.015321 2.635052 2.252129 -2.450778 7.809911 -11.345468 51.470086 -0.013791 67.040629 1.152168 0.000000 0.000000 0.000000 
-3.487644 91.948174 8.536388 0.000000 0.000000 0.000000 31.778869 -10.688763 -4.477049 -70.060495 7.060049 2.819952 62.297261 -7.027586 1.851461 6.208032 -0.518527 11.198233 -22.307581 -2.075923 3.429131 0.000000 0.000000 0.000000 31.938757 -8.953498 -4.708325 -37.178123 -18.451426 1.012525 41.133127 -7.157285 -0.188106 -28.566937 4.022920 1.954691 -9.242537 -3.584978 -0.222049 0.000000 0.000000 0.000000 29.451438 -4.237440 -5.636862 4.238918 4.351331 0.999411 -0.070240 1.777501 -0.472689 0.362889 0.847104 -0.165664 0.000000 0.000000 0.000000 -0.129089 1.584752 -0.365999 -11.643266 0.031699 3.060068 -10.730715 3.545105 -2.999131 0.000000 0.000000 0.000000 -0.759007 1.981797 -0.534722 1.255992 0.910991 -19.575565 2.330100 -1.639285 -0.165611 18.565834 -4.061585 -43.041079 2.624107 -68.334827 0.754099 0.000000 0.000000 0.000000 0.084894 1.624121 -1.052469 1.638042 4.338198 17.872612 3.088595 2.691898 -2.552365 7.736850 -10.819670 51.298262 0.120777 68.144456 0.938257 0.000000 0.000000 0.000000 
-4.049416 91.236885 12.375854 0.000000 0.000000 0.000000 31.264385 -13.136565 -3.794762 -76.241625 7.213483 3.570744 59.051370 -6.451932 1.225004 7.663191 0.413393 10.792104 -15.737490 -0.922400 1.418276 0.000000 0.000000 0.000000 32.433840 -9.238140 -4.563572 -34.114555 -16.586295 1.810258 41.791038 -7.936850 0.373548 -28.866917 1.536269 1.284897 -8.709485 -3.003561 -0.307061 0.000000 0.000000 0.000000 28.821902 -4.406628 -5.833493 4.850751 4.682057 0.584041 0.204365 1.953975 -0.466198 0.623941 2.109021 0.178978 0.000000 0.000000 0.000000 -0.296026 1.666735 -0.467389 -12.074258 -0.009290 2.828747 -11.216043 3.189870 -2.692301 0.000000 0.000000 0.000000 -0.569919 2.119562 -0.544688 1.325007 0.990795 -18.972485 1.812863 -1.394055 -0.481379 18.159233 -4.156805 -43.986616 2.849868 -68.567299 1.260111 0.000000 0.000000 0.000000 0.134575 1.771726 -1.144556 1.662022 4.927666 17.606713 3.564932 3.066200 -2.565212 8.556388 -10.410978 51.279855 0.150797 70.027703 0.794396 0.000000 0.000000 0.000000 
-4.906682 90.590279 16.435961 0.000000 0.000000 0.000000 30.875092 -14.927809 -2.820208 -82.283706 6.731930 3.352542 56.519453 -5.356534 1.097265 9.474837 2.318076 10.753565 -8.780446 -0.098841 -0.525524 0.000000 0.000000 0.000000 32.219191 -9.848874 -4.189002 -30.301222 -14.149831 2.234097 40.382226 -8.233708 0.433098 -30.514338 -0.645816 0.350082 -2.928699 -1.464019 -1.086832 0.000000 0.000000 0.000000 28.690906 -4.709392 -5.693870 5.371295 5.051363 -0.162560 0.441820 2.141866 -0.462201 0.758109 2.504980 0.466568 0.000000 0.000000 0.000000 -0.319581 1.841654 -0.578945 -12.528050 0.026240 2.483599 -11.869727 2.761994 -2.309782 0.000000 0.000000 0.000000 -0.347982 2.284106 -0.532730 1.419452 1.105261 -18.195924 1.509422 -1.283128 -0.760985 17.587005 -4.111513 -45.315085 3.145972 -68.774336 1.911268 0.000000 0.000000 0.000000 0.152158 1.952245 -1.226044 1.704420 5.571454 17.256075 3.823758 3.349464 -2.413988 10.231354 -10.297328 51.506521 0.139038 72.382629 0.669304 0.000000 0.000000 0.000000 
-5.840925 90.103714 20.796528 0.000000 0.000000 0.000000 30.597649 -15.426635 -1.969644 -86.408614 6.663749 2.328789 52.908831 -3.365206 1.289997 9.881773 4.527527 12.019707 -4.851749 0.155771 -1.288110 0.000000 0.000000 0.000000 31.622741 -10.284559 -3.585995 -25.116301 -11.786443 2.716849 35.836234 -8.022025 -0.400960 -32.358014 -2.204897 -0.555766 0.034899 0.854843 -2.576940 0.000000 0.000000 0.000000 29.255182 -4.782414 -5.192063 5.695453 5.380406 -1.319684 0.599398 2.359770 -0.449486 1.193697 2.481667 0.632986 0.000000 0.000000 0.000000 -0.258394 2.100385 -0.672466 -12.862392 0.086856 2.118410 -12.504170 2.506756 -1.955317 0.000000 0.000000 0.000000 -0.171407 2.471238 -0.506350 1.498202 1.201226 -17.422696 1.302777 -1.270335 -1.082949 16.877404 -3.796170 -46.860821 3.373936 -69.087486 2.535483 0.000000 0.000000 0.000000 0.111146 2.169719 -1.256040 1.759465 6.131753 16.907652 3.696725 3.844788 -2.198938 12.451482 -10.552199 52.016429 0.145451 74.850513 0.531155 0.000000 0.000000 0.000000 
-6.909113 89.491371 25.510809 0.000000 0.000000 0.000000 30.686025 -14.502474 -1.309393 -87.763771 7.585953 1.015732 47.771514 -1.121805 1.725993 8.782452 6.093012 14.254317 -5.272381 -0.011665 -0.625575 0.000000 0.000000 0.000000 31.421677 -9.655361 -2.897703 -18.740526 -9.846557 3.267402 28.957331 -7.137011 -2.089857 -32.311231 -3.026011 -0.642633 -5.544038 3.593788 -4.017604 0.000000 0.000000 0.000000 30.210856 -4.768504 -4.295430 5.864618 5.571945 -2.902535 0.648609 2.590182 -0.440253 1.347825 1.897294 0.627483 0.000000 0.000000 0.000000 -0.207163 2.426541 -0.735768 -12.986377 0.152046 1.853287 -12.825287 2.700772 -1.640715 0.000000 0.000000 0.000000 -0.099065 2.689556 -0.481061 1.532132 1.233039 -16.761318 1.062747 -1.184548 -1.350919 16.076734 -3.129182 -48.409430 3.456351 -69.590899 3.001635 0.000000 0.000000 0.000000 0.002651 2.427664 -1.215320 1.814771 6.461456 16.623615 3.120246 4.400854 -1.951028 14.794183 -11.141669 52.853462 0.236246 77.076998 0.308773 0.000000 0.000000 0.000000 
-8.081346 88.629417 30.657381 0.000000 0.000000 0.000000 30.613338 -12.312544 -1.015308 -87.364765 9.205778 -0.020973 42.738242 0.526029 2.294810 7.538746 6.595638 15.950722 -7.382191 -0.287899 0.270172 0.000000 0.000000 0.000000 31.215638 -8.631307 -2.203907 -13.026041 -8.386752 3.695546 23.927847 -5.969076 -3.852938 -28.729367 -3.617336 -0.939445 -17.534414 6.100467 -3.872151 0.000000 0.000000 0.000000 30.694334 -4.331853 -3.297849 6.070409 5.609496 -4.717055 0.589679 2.849510 -0.434356 1.386773 1.124033 0.443076 0.000000 0.000000 0.000000 -0.227160 2.788974 -0.789096 -13.007808 0.216946 1.735900 -12.648931 3.237792 -1.371576 0.000000 0.000000 0.000000 -0.171388 2.959180 -0.482024 1.510166 1.157247 -16.339966 0.829078 -1.051246 -1.468698 15.400318 -2.209656 -49.774864 3.274156 -70.201654 3.144872 0.000000 0.000000 0.000000 -0.178927 2.728387 -1.136133 1.848226 6.486993 16.435259 2.239088 4.954227 -1.729581 16.790709 -11.949286 53.887573 0.421738 78.848517 0.017004 0.000000 0.000000 0.000000 
